<?xml version="1.0" standalone="no"?>
<!DOCTYPE svg PUBLIC "-//W3C//DTD SVG 20010904//EN"
 "http://www.w3.org/TR/2001/REC-SVG-20010904/DTD/svg10.dtd">
<svg version="1.0" xmlns="http://www.w3.org/2000/svg"
 width="1280.000000pt" height="1265.000000pt" viewBox="0 0 1280.000000 1265.000000"
 preserveAspectRatio="xMidYMid meet">
<metadata>
Created by potrace 1.15, written by Peter Selinger 2001-2017
</metadata>
<g transform="translate(0.000000,1265.000000) scale(0.100000,-0.100000)"
fill="#000000" stroke="none">
<path d="M2818 12640 c-251 -24 -486 -74 -623 -130 -101 -43 -179 -95 -272
-182 -94 -89 -118 -105 -180 -118 -168 -36 -671 -309 -952 -515 -100 -73 -255
-229 -304 -307 -89 -139 -88 -273 4 -492 55 -132 102 -166 184 -132 43 18 64
60 100 196 44 171 117 337 176 405 17 19 37 35 44 35 26 0 60 -75 119 -269 15
-46 36 -97 48 -114 l22 -30 35 40 c35 39 55 72 192 308 39 67 91 138 134 183
62 66 83 81 199 138 71 35 140 64 153 64 12 0 29 -10 37 -22 20 -32 51 -140
66 -228 21 -126 42 -150 130 -150 66 0 128 10 523 81 591 106 873 139 1212
139 402 0 714 -60 970 -187 91 -45 335 -202 335 -215 0 -4 -58 -75 -129 -157
-260 -300 -401 -487 -557 -737 -132 -212 -151 -239 -223 -307 -89 -84 -162
-131 -631 -407 -878 -517 -1400 -858 -1539 -1005 -51 -54 -53 -58 -48 -101 3
-32 22 -70 68 -141 101 -157 188 -305 200 -341 10 -32 9 -36 -22 -69 -71 -73
-234 -187 -583 -406 -268 -167 -732 -478 -881 -589 -369 -275 -571 -486 -675
-704 -80 -168 -110 -338 -111 -636 0 -345 41 -748 191 -1863 33 -242 78 -584
100 -760 85 -671 112 -873 125 -950 8 -44 15 -83 15 -87 0 -15 99 -8 276 21
273 44 264 43 264 28 0 -22 -111 -193 -154 -237 -21 -22 -55 -45 -75 -51 -20
-5 -151 -14 -291 -19 -308 -10 -386 -27 -448 -92 -41 -45 -54 -135 -27 -187
30 -58 117 -111 359 -216 300 -130 498 -162 645 -106 102 38 172 97 354 296
l46 50 74 -73 c43 -41 96 -81 123 -94 44 -19 60 -20 179 -15 158 8 247 26 279
56 52 49 78 251 75 591 l-1 204 127 38 c128 39 177 59 207 85 21 19 38 -17
-322 713 -491 997 -760 1599 -899 2017 -63 188 -57 216 70 338 181 173 419
290 976 479 338 114 407 136 415 127 12 -11 -11 -78 -79 -231 -144 -322 -228
-572 -291 -870 -30 -138 -84 -501 -79 -530 2 -14 134 -223 294 -465 652 -990
873 -1375 1350 -2355 95 -195 188 -385 205 -421 l33 -67 177 134 c178 134 219
157 241 135 32 -32 0 -204 -60 -329 -47 -100 -116 -165 -318 -302 -92 -62
-184 -133 -209 -161 -148 -165 -118 -342 62 -365 67 -8 427 10 616 32 72 8
161 24 197 35 86 25 125 66 168 180 41 108 87 189 155 276 54 69 134 133 166
133 29 0 134 31 187 55 110 50 233 148 254 202 15 40 -7 137 -52 229 -51 104
-134 204 -217 263 -89 62 -175 145 -170 166 1 9 19 22 39 29 33 12 147 86 214
140 l30 24 -174 288 c-487 809 -969 1506 -1504 2178 l-207 258 23 17 c12 10
104 75 205 145 557 389 1047 839 1342 1232 123 165 158 201 216 230 76 37 132
30 384 -50 113 -36 220 -69 239 -72 l34 -7 -7 64 c-4 35 -29 202 -56 370 -80
503 -101 700 -102 934 0 209 14 275 92 430 54 109 347 622 371 652 41 48 1562
497 1882 554 65 12 68 12 93 -12 45 -41 149 -170 424 -524 146 -187 409 -522
585 -745 583 -736 1029 -1303 1146 -1455 63 -82 159 -207 212 -276 103 -136
162 -194 205 -202 15 -3 49 -1 75 5 88 18 92 0 52 -274 -50 -342 -54 -443 -16
-489 16 -19 21 -20 52 -10 19 6 78 49 132 96 54 47 105 85 114 85 24 0 12
-110 -37 -335 -73 -338 -87 -452 -67 -548 16 -74 117 -155 177 -142 15 3 61
35 101 70 88 77 148 109 200 107 51 -2 91 33 134 119 101 199 142 524 101 795
-103 677 -585 1542 -1716 3079 -506 687 -830 1242 -830 1421 0 27 5 44 14 47
26 10 62 -48 102 -166 32 -95 70 -157 95 -157 25 0 49 53 49 109 0 67 16 54
40 -32 43 -155 94 -239 136 -223 24 9 44 71 44 133 0 32 3 68 6 81 l7 23 27
-26 28 -27 15 23 c8 13 25 61 37 107 12 45 23 82 25 82 2 0 22 -48 46 -107
l43 -106 13 39 c27 76 73 271 97 404 l23 135 17 -40 c54 -130 105 -230 116
-230 18 0 48 91 66 205 22 129 14 436 -15 606 -44 257 -120 506 -223 729 -147
318 -198 447 -198 504 0 44 -21 103 -44 126 -22 22 -26 22 -73 10 -59 -15
-263 -35 -363 -35 -104 0 -134 16 -155 82 -25 74 -41 95 -82 109 -51 17 -151
6 -215 -23 -45 -21 -97 -71 -334 -319 -410 -429 -467 -479 -543 -479 -28 0
-259 64 -741 205 l-75 22 -6 269 c-4 148 -12 307 -18 354 -11 84 -35 187 -45
197 -3 3 -54 -30 -113 -74 -140 -104 -200 -142 -358 -224 -129 -67 -307 -139
-343 -139 -23 0 -102 55 -252 177 -63 51 -120 93 -127 93 -16 0 -18 -69 -4
-118 8 -25 7 -34 -3 -38 -8 -3 -83 21 -167 54 -496 191 -1304 368 -2159 472
-396 48 -878 70 -1082 50z"/>
<path d="M12291 4133 c-20 -16 -33 -67 -98 -368 -41 -192 -75 -350 -76 -352
-1 -1 -23 3 -49 8 -130 28 -292 -55 -356 -183 -13 -27 -52 -184 -97 -394 -41
-192 -124 -583 -185 -869 -150 -702 -142 -657 -129 -729 6 -33 20 -77 30 -99
27 -53 95 -118 149 -145 54 -26 546 -132 612 -132 97 0 204 59 262 143 44 65
50 87 187 732 60 286 142 669 181 850 81 369 86 431 49 526 -36 93 -125 170
-227 198 l-42 11 9 38 c43 193 139 657 139 672 0 31 -36 47 -170 75 -69 14
-134 28 -146 31 -11 3 -30 -3 -43 -13z"/>
</g>
</svg>
