<?xml version="1.0" encoding="UTF-8"?>
<svg width="220px" height="379px" viewBox="0 0 220 379" version="1.1" xmlns="http://www.w3.org/2000/svg" xmlns:xlink="http://www.w3.org/1999/xlink">
    <!-- Generator: Sketch 60.1 (88133) - https://sketch.com -->
    <title>Slice 1</title>
    <desc>Created with Sketch.</desc>
    <g id="Page-1" stroke="none" stroke-width="1" fill="none" fill-rule="evenodd">
        <g id="Group-2" transform="translate(0.041000, 0.000000)" fill-rule="nonzero">
            <path d="M204.817,249.22 C213.473,237.212 218.049,221.636 218.049,204.175 L218.049,150.728 C218.049,142.749 211.455,136.257 203.35,136.257 L108.225,136.257 C100.121,136.257 93.528,142.749 93.528,150.728 L93.528,204.175 C93.528,221.636 98.103,237.212 106.759,249.22 C115.198,260.928 127.165,268.671 141.567,271.805 L141.567,345.506 C141.567,346.084 141.518,346.496 141.462,346.781 C136.185,347.816 118.8,351.183 112.612,351.82 C102.523,352.861 97.407,357.228 97.407,364.802 C97.407,372.898 103.597,378.13 113.177,378.13 L198.4,378.13 C207.98,378.13 214.171,372.898 214.171,364.802 C214.171,357.228 209.056,352.861 198.964,351.82 C192.776,351.183 175.388,347.816 170.113,346.781 C170.057,346.447 170.009,345.972 170.009,345.328 L170.009,271.805 C184.412,268.672 196.378,260.928 204.817,249.22 Z M166.431,357.266 L166.431,357.268 C167.39,357.457 190.033,361.961 197.835,362.764 C202.376,363.231 203.054,364.065 203.077,364.096 C203.102,364.139 203.171,364.36 203.171,364.803 C203.171,365.379 203.171,367.133 198.4,367.133 L113.177,367.133 C108.406,367.133 108.406,365.379 108.406,364.803 C108.406,364.36 108.474,364.139 108.496,364.1 C108.522,364.065 109.2,363.231 113.738,362.764 C121.543,361.961 144.186,357.457 145.147,357.268 L145.539,357.174 C146.259,356.975 152.567,354.957 152.567,345.508 C152.567,345.508 152.567,284.711 152.567,264.446 C152.567,262.071 147.848,261.766 147.848,261.766 C121.126,257.936 104.527,235.87 104.527,204.175 L104.527,150.728 C104.527,148.846 106.22,147.257 108.224,147.257 L203.35,147.257 C205.354,147.257 207.047,148.846 207.047,150.728 L207.047,204.175 C207.047,235.869 190.447,257.936 163.727,261.766 C163.727,261.766 159.006,261.946 159.006,264.446 C159.006,284.667 159.006,345.329 159.006,345.329 C159.009,355.107 164.963,356.957 166.431,357.266 Z" id="Shape" fill="#000000"></path>
            <path d="M200.349,203.861 C200.349,196.486 185.769,204.103 181.666,204.103 C155.886,204.103 129.077,168.359 118.685,168.359 C114.582,168.359 111.228,171.631 111.228,175.632 L111.228,203.861 C111.228,232.388 126.537,255.519 155.789,255.519 C185.041,255.519 200.349,232.388 200.349,203.861 Z" id="Path" fill="#F85050"></path>
            <g id="Group" transform="translate(-0.000000, 0.000000)">
                <path d="M153.011,44.903 C156.575,42.89 159.191,39.596 160.185,35.867 C161.07,32.55 160.623,29.151 158.929,26.296 L147.015,6.224 C144.702,2.327 140.415,0 135.547,0 C132.888,0 130.228,0.708 127.853,2.049 C108.394,13.039 76.101,29.479 68.593,29.863 C67.69,29.909 66.789,29.932 65.914,29.932 C56.654,29.932 50.556,27.349 44.658,24.851 C39.522,22.676 34.211,20.427 27.664,20.427 C21.581,20.427 15.315,22.316 7.977,26.367 C4.701,27.701 0,31.95 0,40.907 L0,157.292 C0,165.423 4.93,168.308 9.152,168.308 L9.152,168.308 C11.059,168.308 12.571,167.736 12.989,167.56 L13.285,167.436 L66.525,137.378 C84.674,127.131 87.171,116.058 89.816,104.334 C91.436,97.152 93.111,89.725 98.814,81.117 C102.864,75.008 133.548,55.896 153.011,44.903 Z" id="Path" fill="#000000"></path>
                <path d="M89.644,75.044 C82.825,85.336 80.838,94.145 79.085,101.917 C76.635,112.779 75.017,119.954 61.117,127.802 L12.018,155.522 C12.018,155.522 11,155.987 11,155.112 C11,153.063 11,149.028 11,146.917 C11,146.161 11.759,145.888 12.123,145.684 C22.976,139.571 50.568,123.979 50.568,123.979 C70.739,112.591 64.069,101.981 73.543,82.79 C80.315,69.071 126.091,40.609 132.658,36.57 C135.246,34.979 127.85,29.196 123.45,31.277 C111.315,37.014 79.325,53.422 62.618,56.765 C44.102,60.47 27.558,57.709 12.396,67.02 C11.929,67.307 11,67.071 11,65.321 L11,40.91 C11,38.189 11.729,36.918 12.182,36.558 L12.415,36.491 L12.964,36.184 C18.76,32.941 23.431,31.431 27.664,31.431 C31.977,31.431 35.68,32.999 40.368,34.984 C46.629,37.636 54.42,40.936 65.914,40.936 C66.975,40.936 68.065,40.908 69.155,40.852 C82.596,40.164 131.201,12.796 133.262,11.631 C133.989,11.221 134.78,11.004 135.547,11.004 C136.481,11.004 137.25,11.325 137.557,11.842 L149.469,31.914 C149.647,32.212 149.676,32.59 149.557,33.036 C149.324,33.911 148.592,34.767 147.602,35.327 C142.427,38.248 96.833,64.195 89.644,75.044 Z" id="Path" fill="#B85757"></path>
            </g>
        </g>
    </g>
</svg>